<svg xmlns="http://www.w3.org/2000/svg" xml:space="preserve" width="100" height="100" version="1.0" viewBox="0 0 100 100"><path fill="#a7a2b4" d="M50 23.333c-7.363 0-13.333 5.97-13.333 13.333C36.667 44.032 42.637 50 50 50s13.333-5.968 13.333-13.333c0-7.364-5.97-13.334-13.333-13.334zm0 20a6.667 6.667 0 1 1 0-13.334 6.667 6.667 0 0 1 0 13.334z"/><path fill="#a7a2b4" d="M50 10c-22.093 0-40 17.909-40 40.001C10 72.09 27.907 90 50 90c22.09 0 40-17.91 40-39.999C90 27.909 72.09 10 50 10zM30 76.621V70a6.667 6.667 0 0 1 6.667-6.667h26.666A6.667 6.667 0 0 1 70 70v6.621c-5.576 4.196-12.487 6.712-20 6.712s-14.427-2.516-20-6.712zm46.66-6.677c-.029-7.334-5.983-13.277-13.327-13.277H36.667c-7.344 0-13.301 5.94-13.327 13.281-4.173-5.566-6.673-12.458-6.673-19.947 0-18.411 14.922-33.335 33.333-33.335 18.408 0 33.333 14.924 33.333 33.335 0 7.489-2.5 14.381-6.673 19.943z"/></svg>
