<svg xmlns="http://www.w3.org/2000/svg" width="20" height="20" viewBox="0 0 20 20"><g fill="none" fill-rule="evenodd"><path d="M-2-2h24v24H-2z"/><path d="m12.25.26-.08-.04-.01.02C11.46.09 10.74 0 10 0 4.48 0 0 4.48 0 10s4.48 10 10 10 10-4.48 10-10c0-4.75-3.31-8.72-7.75-9.74ZM17.41 7H9.42l2.71-4.7c2.4.66 4.35 2.42 5.28 4.7ZM11.1 2.08 8.27 7 7.12 9 4.4 4.3A7.958 7.958 0 0 1 10 2c.37 0 .74.03 1.1.08ZM3.7 5.09 6.54 10l1.15 2H2.26C2.1 11.36 2 10.69 2 10c0-1.85.64-3.55 1.7-4.91ZM2.59 13h7.98l-2.71 4.7A8.033 8.033 0 0 1 2.59 13Zm6.31 4.91L12.89 11l2.72 4.7A8 8 0 0 1 10 18c-.38 0-.74-.04-1.1-.09Zm7.4-3L12.3 8h5.43c.17.64.27 1.31.27 2 0 1.85-.64 3.55-1.7 4.91Z" fill="#ff0062"/></g></svg>
