<svg xmlns="http://www.w3.org/2000/svg" viewBox="0 0 32 32"><path fill="#a7a2b4" d="M23 29H9a5 5 0 0 1-5-5v-6h24v6a5 5 0 0 1-5 5ZM11.58 16h4.697l-2.857-5H8.723l2.857 5zM20.42 11h-4.697l2.857 5h4.697l-2.857-5zM6.42 11H4v5h5.277L6.42 11zM22.723 11l2.857 5H28v-5h-5.277zM20.146 8.012l-4.619.855 1.9-5.437 4.618-.854-1.899 5.436zM10.544 4.704l4.618-.854-1.899 5.436-4.619.855 1.9-5.437zM24.31 2.157l.413-.077a2 2 0 0 1 2.33 1.6l.546 2.95-5.188.96ZM8.279 5.123l-1.9 5.437L4 11l-.546-2.95a2 2 0 0 1 1.6-2.33Z"/></svg>
