<svg xmlns="http://www.w3.org/2000/svg" xmlns:xlink="http://www.w3.org/1999/xlink" id="eYfxFIRjqGP1" viewBox="0 0 212 318" shape-rendering="geometricPrecision" text-rendering="geometricPrecision"><rect width="212" height="318" rx="0" ry="0" fill="#d2dbed" stroke-width="0"/><path d="M31,4L1,4c-.6,0-1,.4-1,1v22c0,.6.4,1,1,1h30c.6,0,1-.4,1-1v-22c0-.6-.4-1-1-1ZM10,23v3h-3v-3h3Zm2,0h3v3h-3v-3Zm5,0h3v3h-3v-3Zm5,0h3v3h-3v-3ZM22,9v-3h3v3h-3ZM20,9h-3v-3h3v3ZM15,9h-3v-3h3v3ZM10,9h-3v-3h3v3ZM30,9h-3v-3h3v3ZM5,6v3h-3v-3h3ZM2,23h3v3h-3v-3Zm25,3v-3h3v3h-3Z" fill="#7a8296" transform="matrix(2.522106 0 0 2.522106 65.646304 118.646304)"/></svg>
