<svg id="emiRj8wErh91" xmlns="http://www.w3.org/2000/svg" xmlns:xlink="http://www.w3.org/1999/xlink" viewBox="0 0 24 36" shape-rendering="geometricPrecision" text-rendering="geometricPrecision"><rect width="24" height="36" rx="0" ry="0" fill="#f3f1f0" stroke-width="0"/><g transform="matrix(.692609 0 0 0.692609 3.688692 3.688692)"><g transform="translate(4 10)"><path d="M5.848464,13.549822c1.439669-.116021,2.885959-.116021,4.325628,0c.783978.045701,1.564237.143772,2.335839.293594c1.669693.338079,2.759751.88968,3.226919,1.77936.350867.694356.350867,1.520946,0,2.215302-.467168.88968-1.51397,1.476869-3.244221,1.77936-.770998.15547-1.551431.256536-2.335839.302491C9.430084,20,8.703379,20,7.968022,20h-1.323642c-.276841-.035587-.54503-.053381-.804567-.053381-.784434-.040349-1.565047-.138465-2.335839-.293594-1.669693-.320285-2.759751-.88968-3.226919-1.779359-.180344-.344638-.275421-.729629-.276951-1.120997-.003648-.393753.088553-.782204.2683-1.129893.458516-.88968,1.548575-1.467972,3.23557-1.77936.774189-.151962,1.557463-.250049,2.34449-.293594ZM8.002627,0c2.90022,0,5.251312,2.417822,5.251312,5.400356s-2.351092,5.400356-5.251312,5.400356-5.251313-2.417822-5.251313-5.400356s2.351093-5.400356,5.251313-5.400356Z" fill="#7a8296"/></g></g></svg>
