<svg xmlns="http://www.w3.org/2000/svg" width="21" height="20" viewBox="0 0 21 20"><g fill="none" fill-rule="evenodd"><path d="M-2-2h24v24H-2z"/><path fill="#7a8296" d="M16 11v7H2V4h5.02c.05-.71.22-1.38.48-2H2C.9 2 0 2.9 0 4v14c0 1.1.9 2 2 2h14c1.1 0 2-.9 2-2v-5l-2-2Zm-1.5 5h-11l2.75-3.53 1.96 2.36 2.75-3.54L14.5 16Zm2.8-9.11c.44-.7.7-1.51.7-2.39C18 2.01 15.99 0 13.5 0S9 2.01 9 4.5 11.01 9 13.49 9c.88 0 1.7-.26 2.39-.7L19 11.42 20.42 10 17.3 6.89ZM13.5 7a2.5 2.5 0 0 1 0-5 2.5 2.5 0 0 1 0 5Z"/></g></svg>
